<svg xmlns="http://www.w3.org/2000/svg" width="388" height="40" viewBox="0 0 388 40" fill="none">
	<path d="M0 8.41843V1.34496H33.8997V8.41843C28.0912 5.67871 25.237 4.38356 21.832 4.38356H21.6818V31.2827C21.6818 35.6164 22.1825 37.609 24.536 38.7547V39.0535H9.41381V38.7547C11.7172 37.609 12.268 35.6164 12.268 31.2827V4.38356H12.1678C8.76285 4.38356 5.85859 5.67871 0 8.41843Z" fill="black"/>
	<path d="M34.3895 39.0535V38.7547C36.4926 37.609 36.9933 35.6164 36.9933 31.2827V22.0174C36.9933 17.5342 36.6428 15.6912 34.5898 14.6949V14.4458L45.606 13.7983V31.2827C45.606 35.6164 46.1067 37.609 48.2598 38.7547V39.0535H34.3895ZM37.0434 9.066V2.14197H45.4557V9.066H37.0434Z" fill="black"/>
	<path d="M64.7903 40C57.1291 40 51.1203 35.3674 51.1203 26.8991C51.1203 18.0822 57.6298 13.3997 65.2911 13.3997C72.8021 13.3997 77.7594 17.6339 78.3603 23.462H71.0996C70.7491 19.6762 69.297 16.2391 65.4914 16.2391C61.5356 16.2391 59.4826 19.7758 59.4826 25.1557C59.4826 30.9838 61.7359 35.3176 67.2439 35.3176C71.7506 35.3176 74.1541 32.4782 75.2557 28.3437H78.5105C77.3588 35.0685 72.8021 40 64.7903 40Z" fill="black"/>
	<path d="M101.432 39.0535L91.6673 26.3512V31.2827C91.6673 35.6164 92.168 37.609 94.2711 38.7547V39.0535H80.4007V38.7547C82.604 37.609 83.0546 35.6164 83.0546 31.2827V7.9203C83.0546 4.73225 82.654 2.93898 80.9015 1.74346V1.4944L91.6172 0L92.0178 0.249065C91.7674 1.59402 91.6673 3.28767 91.6673 7.9203V24.259L98.327 18.8792C100.58 17.0859 101.482 15.2428 100.28 14.5455V14.2964H110.044V14.7447C107.941 15.4421 106.339 16.1395 104.085 17.9328L97.626 23.1133L111.396 38.6052V39.0535H101.432Z" fill="black"/>
	<path d="M124.938 40C117.127 40 111.218 35.2677 111.218 26.9489C111.218 18.2814 117.628 13.3997 125.389 13.3997C133.651 13.3997 138.608 18.4309 138.709 25.5044H119.43C119.53 31.3325 122.034 35.3176 127.292 35.3176C131.698 35.3176 134.202 32.7771 135.454 28.792H138.709C137.407 35.1183 133.1 40 124.938 40ZM119.53 23.0635H130.697C130.446 18.7298 128.644 16.0897 125.339 16.0897C122.084 16.0897 120.031 18.7796 119.53 23.0635Z" fill="black"/>
	<path d="M153.307 39.6513C148.55 39.6513 144.794 37.1606 144.794 30.2366V17.4346H140.037V14.2964H144.794V9.16563L153.006 3.83562H153.407V14.2964H161.219V17.4346H153.407V30.2366C153.407 33.5741 154.659 34.7696 156.962 34.7696C159.266 34.7696 160.868 33.5243 162.17 31.3823L162.871 33.5741C160.968 37.3599 157.613 39.6513 153.307 39.6513Z" fill="black"/>
	<path d="M177.636 40C169.624 40 164.817 36.5131 163.966 31.1333H171.477C171.827 34.9191 173.931 37.4595 177.736 37.4595C180.29 37.4595 181.892 36.3138 181.892 34.3213C181.892 31.9801 179.839 31.0834 174.832 29.2403C169.674 27.3474 165.118 25.7534 165.118 20.8717C165.118 16.0897 169.875 13.3499 176.584 13.3499C183.244 13.3499 188.001 16.0897 189.253 20.9215H182.243C181.792 17.9826 180.039 15.8904 176.634 15.8904C174.081 15.8904 172.729 17.0859 172.729 18.6799C172.729 21.1208 175.733 22.3163 180.34 23.9103C185.497 25.7036 189.503 27.5467 189.503 32.1793C189.503 37.3101 184.496 40 177.636 40Z" fill="black"/>
	<path d="M212.521 39.5517L199.803 8.46824V31.2827C199.803 35.6164 200.404 37.609 203.208 38.7547V39.0535H192.592V38.7547C195.196 37.609 195.747 35.6164 195.747 31.2827V9.11582C195.747 4.63263 195.246 2.78954 192.993 1.64384V1.34496H206.112L216.277 26.8991L226.292 1.34496H239.06V1.64384C236.807 2.78954 236.306 4.63263 236.306 9.11582V31.2827C236.306 35.6164 236.807 37.609 239.161 38.7547V39.0535H224.088V38.7547C226.642 37.609 227.193 35.6164 227.193 31.2827V8.21918L214.625 39.5517H212.521Z" fill="black"/>
	<path d="M249.728 39.8506C245.072 39.8506 242.117 37.5093 242.117 33.3748C242.117 28.6426 245.823 26.9489 252.583 25.1059C257.64 23.7111 259.493 22.9141 259.543 19.9253C259.543 17.3848 258.191 16.1395 255.787 16.1395C253.033 16.1395 250.63 18.0324 250.58 22.8144H243.119C243.569 16.5878 250.179 13.3499 256.939 13.3499C262.948 13.3499 268.105 15.741 268.105 23.1631V31.9801C268.105 34.7198 268.756 35.6164 270.108 35.6164C270.759 35.6164 271.26 35.4172 271.811 35.0685V37.3101C270.058 38.7547 268.206 39.6015 265.852 39.6015C262.697 39.6015 259.693 37.8082 259.693 32.6775V32.3786C258.391 36.7123 254.936 39.8506 249.728 39.8506ZM250.179 31.731C250.179 33.9726 251.631 34.9191 253.434 34.9191C257.189 34.9191 259.643 31.4819 259.643 26.6501V24.259C259.092 25.4047 257.64 26.0025 255.086 26.8991C251.681 28.0946 250.179 29.2403 250.179 31.731Z" fill="black"/>
	<path d="M273.12 39.0535V38.7547C275.223 37.609 275.724 35.6164 275.724 31.2827V22.0672C275.724 17.5841 275.223 15.6912 273.07 14.5455V14.2964H285.288C284.486 15.5915 284.336 17.6339 284.336 22.0672V23.213C285.137 18.929 288.592 13.6986 295.002 13.6986V20.7223C286.99 20.523 284.536 22.9141 284.336 26.7497V31.4321C284.336 35.7161 284.887 37.6588 287.341 38.8045V39.0535H273.12Z" fill="black"/>
	<path d="M310.414 40C302.753 40 296.744 35.3674 296.744 26.8991C296.744 18.0822 303.254 13.3997 310.915 13.3997C318.426 13.3997 323.383 17.6339 323.984 23.462H316.724C316.373 19.6762 314.921 16.2391 311.115 16.2391C307.16 16.2391 305.107 19.7758 305.107 25.1557C305.107 30.9838 307.36 35.3176 312.868 35.3176C317.375 35.3176 319.778 32.4782 320.88 28.3437H324.134C322.983 35.0685 318.426 40 310.414 40Z" fill="black"/>
	<path d="M325.975 39.0535V38.7547C328.178 37.609 328.679 35.6164 328.679 31.2827V7.9203C328.679 4.78207 328.178 2.93898 326.375 1.74346V1.4944L337.542 0L337.642 0.298877C337.391 1.64383 337.291 3.28767 337.291 7.9203V19.8755C338.944 16.0897 342.449 13.3499 347.106 13.3499C352.113 13.3499 355.418 16.0897 355.418 22.9639V31.2827C355.418 35.6164 355.868 37.609 357.821 38.7547V39.0535H344.552V38.7547C346.405 37.609 346.805 35.6164 346.805 31.2827V23.3624C346.805 19.4271 345.353 17.9328 342.849 17.9328C340.045 17.9328 337.992 20.1245 337.291 23.462V31.2827C337.291 35.6164 337.742 37.609 339.845 38.7547V39.0535H325.975Z" fill="black"/>
	<path d="M374.23 40C366.418 40 360.51 35.2677 360.51 26.9489C360.51 18.2814 366.919 13.3997 374.68 13.3997C382.943 13.3997 387.9 18.4309 388 25.5044H368.722C368.822 31.3325 371.326 35.3176 376.583 35.3176C380.99 35.3176 383.493 32.7771 384.745 28.792H388C386.698 35.1183 382.392 40 374.23 40ZM368.822 23.0635H379.988C379.738 18.7298 377.935 16.0897 374.63 16.0897C371.376 16.0897 369.323 18.7796 368.822 23.0635Z" fill="black"/>
</svg>